<?xml version="1.0" encoding="UTF-8"?>
<!-- Generator: visioncortex VTracer 0.6.3 -->
<svg version="1.1" xmlns="http://www.w3.org/2000/svg" width="236" height="236">
<path d="M0 0 C1.01 0.74 2.02 1.48 3.06 2.25 C13.4 11 20.65 24.56 22 38 C23.38 57.7 18.43 75.29 5.34 90.47 C-15.88 113.4 -48.38 122.91 -78.85 124.11 C-113.86 124.8 -150.14 119.42 -177 95 C-177.65 94.43 -178.31 93.85 -178.98 93.26 C-190.34 82.73 -197.6 66.64 -198.34 51.2 C-198.52 41.18 -198.05 32.34 -194 23 C-193.4 21.61 -193.4 21.61 -192.79 20.19 C-186.91 8.2 -177.12 -0.9 -166 -8 C-164.45 -9 -164.45 -9 -162.86 -10.02 C-116.29 -38.31 -41.65 -37.16 0 0 Z " fill="#0D0784" transform="translate(203,71)"/>
<path d="M0 0 C9.1 1.34 17.74 3.35 26.44 6.38 C27.66 6.79 27.66 6.79 28.91 7.22 C40.71 11.46 40.71 11.46 45 15 C45.65 17.37 45.75 19.39 45.79 21.85 C45.85 24.31 45.85 24.31 48.12 26.94 C50.94 29.21 50.94 29.21 54.62 30 C58 31 58 31 59.69 33.44 C60.12 34.28 60.55 35.13 61 36 C63.55 38.55 64.78 38.98 68.44 39.38 C72 40 72 40 74.38 42.44 C77.15 45.15 77.87 45.38 81.5 46 C86.02 46.77 88 48.46 91 52 C94.06 53.53 96.62 53.23 100 53 C100.85 52.46 101.69 51.93 102.56 51.38 C103.37 50.92 104.17 50.47 105 50 C107.02 50.61 109.02 51.29 111 52 C115.79 52.35 120.36 52.34 125 51 C125 50.34 125 49.68 125 49 C125.68 48.9 126.35 48.8 127.05 48.7 C133.98 47.64 133.98 47.64 139 43 C139.33 42.34 139.66 41.68 140 41 C141.93 40.54 141.93 40.54 144.31 40.19 C147.79 39.48 148.83 39.16 151.5 36.62 C152.83 34.29 153.43 32.58 154 30 C154.6 29.91 155.21 29.83 155.83 29.74 C159.76 29.05 162.41 28.48 165.56 25.94 C167.04 22.91 167.16 21.59 167.09 18.32 C167.08 17.51 167.06 16.7 167.05 15.87 C167.03 15.25 167.02 14.63 167 14 C199.96 1 199.96 1 210 1 C210.76 15.78 206.03 27.51 196.31 38.69 C191.35 43.91 186.01 48.06 180 52 C179.25 52.52 178.49 53.04 177.71 53.58 C147.82 73.06 106.09 76.13 72 69 C58.78 66.04 46.76 61.72 35 55 C34.01 54.45 33.01 53.89 31.99 53.32 C16.48 44.08 4.57 30.78 0 13 C-0.36 8.62 -0.32 4.38 0 0 Z " fill="#00B9FD" transform="translate(10,110)"/>
<path d="M0 0 C0.8 0.27 0.8 0.27 1.61 0.54 C28.28 9.49 28.28 9.49 56 7 C55.62 7.44 55.25 7.87 54.86 8.32 C53.79 9.56 52.73 10.81 51.67 12.06 C50.63 13.27 49.57 14.46 48.49 15.62 C46.26 18.08 45.05 19.53 44.69 22.88 C44.79 23.58 44.89 24.28 45 25 C50.6 27.8 55.73 29.4 61.9 27.38 C67.23 24.93 71.83 21.33 76.48 17.8 C80.92 14.62 84.13 13.41 89.59 13.57 C98.3 15.11 105.75 23.86 112.26 29.5 C114.58 31.5 116.91 33.5 119.24 35.49 C120.41 36.5 121.58 37.5 122.74 38.51 C125.7 41.07 128.68 43.56 131.77 45.96 C132.38 46.44 132.98 46.92 133.61 47.41 C134.75 48.32 135.91 49.21 137.09 50.08 C140.18 52.56 140.96 53.7 141.45 57.7 C141 61 141 61 139.44 63 C135.84 64.47 133.76 63.96 130 63 C127.33 61.13 125.1 58.89 122.81 56.56 C121.61 55.37 120.41 54.19 119.21 53 C118.69 52.48 118.16 51.95 117.63 51.4 C115.86 49.88 114.12 48.96 112 48 C116 52.68 120.08 57.18 124.52 61.46 C126.62 63.65 127.9 65.43 128.44 68.44 C128 71 128 71 125.88 73.31 C122.45 75.32 120.91 75.51 117 75 C114.4 72.92 114.4 72.92 111.94 70.19 C108.82 66.78 106.09 64.19 102 62 C104.55 66.58 107.71 69.99 111.36 73.72 C113.31 76.42 113.51 77.74 113 81 C111 83 111 83 107.44 83.69 C104.22 83.65 103.11 83.09 100.58 81.02 C99.01 79.41 97.47 77.75 95.98 76.07 C94.09 73.77 94.09 73.77 91 73 C93.09 76.33 94.95 78.95 97.75 81.75 C98.49 82.49 99.24 83.24 100 84 C100 84.66 100 85.32 100 86 C97.67 87.16 96.15 87.2 93.56 87.25 C92.39 87.29 92.39 87.29 91.19 87.33 C89 87 89 87 87.21 85.76 C85.65 83.5 85.81 82.33 86.06 79.62 C86.15 76.33 86.07 75.14 84.5 72.12 C82.05 70.04 80.85 69.56 77.88 68.69 C75.75 68.01 75.75 68.01 74 67 C73.17 64.98 72.88 63.09 72.54 60.94 C72.08 58.64 72.08 58.64 69.31 56.5 C66.07 54.75 66.07 54.75 62.5 55.06 C58.37 54.99 57.56 53.86 54.68 51.12 C51.47 48.98 47.69 49.51 44 50 C42.52 50.5 42.52 50.5 41 51 C40.24 50.53 39.47 50.05 38.69 49.56 C35.45 47.68 33.69 47.62 30 48 C29.24 48.4 28.48 48.79 27.7 49.2 C25 50 25 50 22.11 48.91 C21 48.3 19.89 47.69 18.75 47.06 C8.9 41.97 -1.74 39.52 -12.4 36.71 C-15.31 35.92 -18.16 35.01 -21 34 C-20.34 19.51 -9.6 9.59 0 0 Z " fill="#FCFCFD" transform="translate(32,72)"/>
<path d="M0 0 C0.74 0 1.48 0 2.24 0 C11.15 0.2 18.81 3.07 26.94 6.5 C42.6 12.93 59.08 11.01 74.61 5.38 C76.9 4.62 78.47 4.15 80.88 4.38 C87.74 8.61 91.92 16.57 95.88 23.38 C96.49 24.43 97.11 25.48 97.75 26.56 C99.2 30.19 99.44 33.5 99.88 37.38 C99.32 37.51 98.77 37.65 98.2 37.8 C86.18 40.88 74.49 44.37 62.94 48.92 C62.07 49.26 61.2 49.59 60.3 49.93 C59.54 50.24 58.78 50.54 58 50.85 C55.52 51.46 54.24 51.28 51.88 50.38 C49.46 48.41 49.46 48.41 46.81 45.88 C42.33 41.67 37.7 37.73 32.9 33.87 C30.61 31.98 28.36 30.06 26.13 28.1 C25.48 27.52 24.82 26.95 24.15 26.36 C22.88 25.24 21.61 24.11 20.35 22.98 C13.89 17.28 7.19 11.82 -1.83 11.97 C-9.62 13.34 -16.71 20.14 -22.88 24.74 C-25.99 27.01 -27.75 27.55 -31.56 27.62 C-32.34 27.65 -33.13 27.68 -33.93 27.7 C-36.6 27.3 -37.44 26.43 -39.12 24.38 C-28.03 11.28 -18.32 -0.04 0 0 Z " fill="#FCFBFD" transform="translate(119.125,69.625)"/>
<path d="M0 0 C0.99 1.48 0.99 1.48 2 3 C-16.57 11.14 -32.6 10.04 -51.31 2.94 C-52.3 2.55 -52.3 2.55 -53.31 2.16 C-64.5 -2.22 -75.12 -3.92 -86.77 0.02 C-88.93 0.97 -90.64 2.06 -92.56 3.44 C-102.16 9.82 -117.86 11.85 -129 10 C-151 5 -151 5 -155 1 C-112.74 -30.27 -42.96 -29.47 0 0 Z " fill="#00B8FC" transform="translate(192,68)"/>
<path d="M0 0 C2.88 2.5 2.88 2.5 5 5 C5.5 4.5 5.99 4.01 6.5 3.5 C10.23 1.26 12.68 1.59 17 2 C19 3.25 19 3.25 20 5 C20 6.32 20 7.64 20 9 C20.54 8.67 21.07 8.34 21.62 8 C24.64 6.73 26.75 6.66 30 7 C32.17 8.2 32.17 8.2 34 10 C34.39 12.48 34.39 12.48 34.25 15.19 C34.21 16.09 34.18 16.99 34.14 17.92 C34.09 18.61 34.05 19.29 34 20 C35.83 19.88 35.83 19.88 37.69 19.75 C40.83 19.77 42.09 20.04 45 21.5 C47.43 24.54 47.68 26.28 47.41 30.1 C47 32 47 32 45.44 34.44 C42.16 36.54 39.89 37 36 37 C32.63 35.1 31.29 33.98 30.19 30.25 C30.13 29.51 30.06 28.76 30 28 C29.46 28.35 28.93 28.7 28.38 29.06 C25.15 30.34 23.31 29.97 20 29 C17.19 26.72 16.15 25.45 15 22 C13.95 22.27 12.9 22.54 11.81 22.81 C8 23 8 23 5.06 21 C2.57 17.37 2.58 15.31 3 11 C2.01 11.66 1.02 12.32 0 13 C-2.94 13.44 -2.94 13.44 -6 13 C-8.44 10.81 -8.44 10.81 -10 8 C-9.93 5.11 -9.39 3.59 -7.81 1.19 C-5.02 -0.64 -3.26 -0.52 0 0 Z " fill="#F8F8FB" transform="translate(68,123)"/>
</svg>
